<?xml version="1.0" encoding="UTF-8"?><svg id="Horizontal" xmlns="http://www.w3.org/2000/svg" viewBox="0 0 311.03 72.14"><defs><style>.cls-1{opacity:.97;}.cls-2,.cls-3,.cls-4,.cls-5,.cls-6{stroke-width:0px;}.cls-3{fill:#f7ab15;}.cls-4{fill:#fff;}.cls-5{fill:#fcc847;}.cls-6{fill:#0047bb;}</style></defs><path class="cls-2" d="m108.74,38.66c2.79-1.12,4.29-3.7,4.29-6.63,0-3.98-2.69-7.31-7.62-7.31h-10.6v22.67h4.82v-8.12h4.16l4.9,8.12h5.33l-5.28-8.73Zm-9.11-9.79h5.14c1.9,0,3.33,1.25,3.33,3.12s-1.43,3.13-3.33,3.13h-5.14v-6.25Z"/><path class="cls-2" d="m127.29,24.34c6.87,0,11.86,4.9,11.86,11.73s-5,11.73-11.86,11.73-11.83-4.9-11.83-11.73,5-11.73,11.83-11.73Zm0,4.28c-4.18,0-6.87,3.2-6.87,7.44s2.69,7.45,6.87,7.45,6.9-3.23,6.9-7.45-2.72-7.44-6.9-7.44Z"/><path class="cls-2" d="m141.98,24.71h4.9v13.46c0,3.16,1.73,5.34,5.27,5.34s5.2-2.18,5.2-5.34v-13.46h4.9v13.6c0,5.64-3.23,9.49-10.1,9.49s-10.17-3.88-10.17-9.45v-13.63Z"/><path class="cls-2" d="m182,47.39l-10.81-15.23v15.23h-4.83v-22.68h4.96l10.51,14.69v-14.69h4.83v22.68h-4.66Z"/><path class="cls-2" d="m190.84,47.39v-22.68h8.94c7.11,0,12.04,4.52,12.04,11.35s-4.93,11.32-12.04,11.32h-8.94Zm4.83-4.25h4.11c4.49,0,7.11-3.23,7.11-7.07s-2.45-7.1-7.11-7.1h-4.11v14.18Z"/><path class="cls-2" d="m222.19,47.39v-20.91h-8.41v-1.77h18.8v1.77h-8.41v20.91h-1.97Z"/><path class="cls-2" d="m244.27,24.72h-2.41l-9.28,22.67h2.24l3.26-8.09h9.98l3.25,8.09h2.24l-9.28-22.67Zm-5.48,12.81l4.29-10.64,4.27,10.64h-8.56Z"/><path class="cls-2" d="m257.62,47.39v-22.68h9.31c3.81,0,6.26,2.21,6.26,5.78,0,2.86-1.94,4.79-3.98,5.2,2.41.37,4.42,2.89,4.42,5.58,0,3.77-2.45,6.12-6.49,6.12h-9.52Zm1.94-12.51h7.14c2.92,0,4.45-1.84,4.45-4.18s-1.53-4.22-4.45-4.22h-7.14v8.4Zm0,10.74h7.28c2.99,0,4.76-1.73,4.76-4.49,0-2.31-1.6-4.49-4.76-4.49h-7.28v8.98Z"/><path class="cls-2" d="m279.25,47.39v-22.68h1.94v20.91h10.98v1.77h-12.92Z"/><path class="cls-2" d="m296.65,47.39v-22.68h14.38v1.77h-12.44v8.4h12.21v1.77h-12.21v8.98h12.44v1.77h-14.38Z"/><circle class="cls-3" cx="36.07" cy="36.07" r="36.07"/><path class="cls-4" d="m36.07,69.04c-18.18,0-32.98-14.79-32.98-32.98S17.89,3.09,36.07,3.09s32.98,14.79,32.98,32.98-14.79,32.98-32.98,32.98"/><path class="cls-5" d="m36.07,4.03c17.69,0,32.04,14.34,32.04,32.04s-14.34,32.04-32.04,32.04S4.03,53.76,4.03,36.07,18.38,4.03,36.07,4.03m0-.94C17.88,3.09,3.09,17.89,3.09,36.07s14.79,32.98,32.98,32.98,32.98-14.79,32.98-32.98S54.25,3.09,36.07,3.09"/><path class="cls-5" d="m36.07,25.11c-6.04,0-10.96,4.92-10.96,10.96s4.92,10.97,10.96,10.97,10.96-4.92,10.96-10.97-4.92-10.96-10.96-10.96m0,21.45c-5.79,0-10.49-4.71-10.49-10.49s4.71-10.49,10.49-10.49,10.49,4.71,10.49,10.49-4.71,10.49-10.49,10.49"/><path class="cls-5" d="m41.08,5.79v19.05c-.11-.05-.22-.09-.33-.14-.11-.05-.21-.09-.32-.13-.11-.04-.22-.08-.33-.12-.38-.14-.77-.25-1.16-.34-.21-.05-.41-.1-.62-.13-.17-.03-.34-.06-.51-.08-.02,0-.05,0-.07-.01-.14-.02-.27-.04-.41-.05-.34-.04-.68-.06-1.02-.06-.07,0-.15,0-.23,0h-.01c-.07,0-.16,0-.23,0-.35,0-.69.02-1.03.06-.14.01-.27.03-.4.05-.03,0-.05,0-.08.01-.16.02-.32.05-.47.08-.22.04-.44.08-.66.14-.39.09-.78.21-1.16.35-.11.04-.22.08-.33.12-.11.04-.21.08-.31.12-.11.04-.22.09-.33.14V5.79s.02,0,.02,0c.17-.03.33-.05.5-.08.71-.11,1.43-.19,2.15-.24.48-.04.96-.06,1.44-.08h0c.19,0,.38-.01.57-.01.11,0,.21,0,.31,0,.1,0,.2,0,.3,0,.19,0,.38,0,.57.01.49.01.97.04,1.45.07.91.07,1.8.18,2.68.33Z"/><path class="cls-3" d="m41.08,5.79v7.11c-.4-1.31-1.55-2.54-3.39-3.61l-.31-.18c.02-.09.04-.19.06-.28.55-.46.6-.67.04-1.17l.92-2.19c.91.07,1.8.18,2.68.33Z"/><path class="cls-3" d="m31.05,5.79v7.11c.4-1.31,1.55-2.54,3.39-3.61l.31-.18c-.02-.09-.04-.19-.06-.28-.55-.46-.6-.67-.04-1.17l-.92-2.19c-.91.07-1.8.18-2.68.33Z"/><path class="cls-5" d="m36.04,13.95s-.09-.02-.25-.02c-.25,0-.64.04-1.08.24-.71.33-1.02.87-1.02.87l-.31-.65s.35-.1.8-.34l-.43-.97-2.69-6.08-1.06-2.4-.17-.92.64.83.62,1.27,3.44,7.01.44.9c.46-.19.77-.4.77-.4l.3.66Z"/><path class="cls-5" d="m35.83,4.17v.53l-.05.04c-.15.12-.44.34-.59.65h0s0,0,0,0l-.38-.12c.06-.56.49-1,1.03-1.1Z"/><path class="cls-5" d="m37.33,5.27l-.39.12c-.15-.31-.44-.54-.59-.65l-.05-.04v-.53c.54.1.96.55,1.03,1.1Z"/><path class="cls-5" d="m37.83,5.61l-.6,1.43c-.33-.19-1-.21-1.17-.21s-.84.01-1.16.21l-.6-1.43.69.21s-.06.54.38.54.38-.3.38-.3c-.29-.23-.18-.48.01-.68.09-.11.21-.2.31-.27.1.07.21.17.31.27.19.21.3.45.01.68,0,0-.05.3.38.3s.38-.54.38-.54l.69-.21Z"/><path class="cls-2" d="m36.33,9.41c0,.15-.12.12-.26.12s-.26.02-.26-.12.12-.26.26-.26.26.12.26.26Z"/><path class="cls-2" d="m36.78,9.04c-.22.05-.52.05-.72-.08-.2.13-.49.13-.72.08.17-.06.48-.22.48-.44.12-.07.36-.05.46,0,0,.22.31.37.48.44Z"/><path class="cls-2" d="m36.07,2.42c-2.11,0-4.18.19-6.19.57-.22.04-.44.08-.66.13C13.92,6.28,2.42,19.83,2.42,36.07c0,18.58,15.07,33.65,33.65,33.65s33.65-15.07,33.65-33.65S54.65,2.42,36.07,2.42Zm-6.24,1.27l.63.83.62,1.27,3.88,7.91c.46-.19.77-.4.77-.4l.3.66s-.09-.02-.25-.02c-.25,0-.64.04-1.08.24-.71.33-1.02.87-1.02.87l-.31-.65s.35-.1.8-.34l-3.13-7.05-.47-1.07-.03-.06-.56-1.27h0s-.17-.92-.17-.92h0Zm5.16,2.13s-.06.54.38.54.38-.3.38-.3c-.29-.23-.18-.48.01-.68.09-.11.21-.2.31-.27.1.07.21.17.31.27.19.21.3.45.01.68,0,0-.05.3.38.3s.38-.54.38-.54l.69-.21-.6,1.43c-.33-.19-1-.21-1.17-.21s-.84.01-1.16.21l-.6-1.43.69.21Zm-.19-.55c.06-.56.49-1,1.03-1.1v.53l-.05.04c-.15.12-.44.34-.59.65h0s0,0,0,0h0l-.38-.12Zm1.5-.57v-.53c.54.1.96.55,1.03,1.1l-.39.12c-.15-.31-.44-.54-.59-.65l-.05-.04Zm5.52,42.24c.89-.46,1.71-1.04,2.45-1.71l12.27,13.68c-1.85,1.66-3.9,3.1-6.11,4.28l-8.61-16.25Zm1.65,18.92c-2.37.59-4.85.91-7.4.91v-18.39c1.02,0,2.02-.12,2.97-.37l4.43,17.85Zm2.77-22.88c.56-.82,1.02-1.71,1.37-2.65l17.26,6.36c-.87,2.35-2.02,4.58-3.42,6.62l-15.21-10.33Zm2.06-5.57c.05-.44.07-.89.07-1.35,0-.55-.04-1.1-.11-1.64l18.23-2.45c.18,1.34.27,2.7.27,4.09,0,1.14-.06,2.26-.19,3.37l-18.28-2.02Zm-.8-5.88c-.37-.93-.85-1.82-1.44-2.62l14.96-10.69c1.45,2.01,2.65,4.21,3.58,6.54l-17.1,6.77Zm-3.45-4.82c-.75-.64-1.59-1.2-2.49-1.65l8.21-16.45c2.24,1.12,4.32,2.5,6.21,4.12l-11.94,13.98Zm2.98,9.35c0,6.05-4.92,10.97-10.96,10.97s-10.96-4.92-10.96-10.97,4.92-10.96,10.96-10.96,10.96,4.92,10.96,10.96Zm-18.95-9.34c-.76.65-1.44,1.39-2.02,2.2l-14.96-10.69c1.46-2.03,3.15-3.87,5.04-5.49l11.93,13.98Zm-5.73-18.1c2.42-1.21,5.01-2.11,7.73-2.65l.51,1.16v17.93s-.02.01-.03.02l-8.22-16.45Zm2.28,22.92c-.37.92-.62,1.88-.75,2.89h0l-18.22-2.45c.33-2.51.97-4.92,1.88-7.21l17.1,6.77Zm-.79,5.87h0c.11,1.01.34,1.98.68,2.91l-17.25,6.37c-.85-2.3-1.44-4.73-1.71-7.26l18.28-2.01Zm2.06,5.56c.56.82,1.22,1.58,1.96,2.25l-12.26,13.69c-1.85-1.66-3.51-3.54-4.91-5.61l15.21-10.33Zm4.41,3.96c.87.47,1.81.83,2.79,1.07l-4.43,17.85c-2.45-.61-4.78-1.51-6.96-2.68l8.6-16.25Zm3.73-27.12c.44,1.43.53,2.71.3,4.08-.16.02-.32.05-.47.08.03-.21.05-.45.06-.66.07-1.36-.19-2.67-.57-3.93.31,1.58.29,3.21-.15,4.72-.4.09-.78.21-1.16.34.7-1.53.82-2.75.82-4.19,0-.41-.05-.84-.12-1.29-.06-.42-.13-.84-.18-1.25h0c-.11-.99-.07-2.07.56-2.77.05-.05.1-.11.16-.16-.05.08-.09.15-.12.23-.54,1.12.15,2.47.86,4.79Zm5.84-8.17c.52.63.88,1.37.91,2.22-.81-1.42-3.73-1.43-4.6-2.2,1.13-.86,1.18-1.7,1.28-1.98.59.34,1.33.83,1.96,1.46-.31.26-.77.45-1.18.54-.48.1-.98.08-1.47-.02.97.45,2.13.51,3.1-.02Zm-1.54,12.33c-.17-.03-.34-.06-.51-.08-.23-1.36-.14-2.65.3-4.08.75-2.48,1.5-3.86.74-5.03.79.69.83,1.86.72,2.92h0c-.05.42-.12.84-.18,1.26-.06.44-.12.88-.12,1.28.01,1.44.14,2.66.82,4.19-.38-.13-.77-.25-1.16-.34-.08-.27-.15-.57-.2-.86-.23-1.26-.14-2.58.07-3.87-.5,1.46-.68,3.06-.49,4.59Zm-.99-.14c-.34-.03-.68-.05-1.02-.06v-6.01c.33.27.77.41,1.31.41.25.44.13,1.2-.06,1.86,0,.03-.01.06-.02.08-.33,1.25-.41,2.44-.21,3.72Zm.5-10.68v.34h-.36v.37c-.06,0-.12-.01-.17-.01-.06,0-.12,0-.17.01v-.37h-.36v-.34h.36v-.37h.34v.37h.36Zm-.36,1.79v-.82c.42.07.75.4.82.82h-.82Zm.82.34c-.07.42-.4.75-.82.82v-.82h.82Zm-1.16-1.15v.82h-.82c.03-.16.09-.31.19-.43.06-.08.14-.15.22-.21.12-.09.26-.15.41-.17Zm0,1.15v.82c-.42-.07-.75-.4-.82-.82h.82Zm.26,1.71s-.27-.34-.05-.37h.02c.13,0,.3.17.6.17.17,0,.39-.05.68-.23-.05.3-.16.65-.3,1.07-.16.04-.42.08-.71.08-.36,0-.75-.07-1.04-.31-.08-.07-.2-.22-.29-.37-.17-.27-.28-.6-.12-.68.01,0,.02-.01.04-.01.2,0,.47.65,1.17.65Zm2.35,3.27c0-.48.08-1.01.16-1.57,0-.03.01-.06.02-.1l.32-.26c.61.84.8,3.71.83,4.24,0,.01,0,.03,0,.04v2.24c-.11-.05-.22-.1-.34-.15-.82-1.61-.98-2.82-.99-4.43Zm.27-2.4c.64-2.1-.22-3.45-1.39-4.2,2.87.2,2.82,3.03,1.39,4.2Zm-3.5-9.78c.24.05.51.16.48.56-.06.65-.32,1.32-.92,1.32s-.87-.67-.92-1.32c-.03-.4.23-.51.48-.56.32-.06.26-.44.26-.44-.39-.03-.67.07-.78.13,0-.21.01-.34.01-.34.29-.07.62-.1.95-.1s.67.04.95.1c0,.03.01.15.01.34-.12-.05-.39-.16-.78-.13,0,0-.06.38.26.44Zm-.55,3.6c-.26.22-.69.38-1.19.53l-.96-1.96c.31-.22.6-.4.87-.56.1.28.15,1.12,1.28,1.98Zm-.65-1.53c.21.19.48.28.76.28s.54-.09.76-.28c-.12.29-.32.64-.76,1.01-.44-.37-.65-.73-.76-1.01Zm-.83,9.54c-.05-.17-.1-.32-.15-.48-.26-.78-.23-1.77.16-2.31.38-.08.94-.09,1.35.35v6.54c-.35,0-.69.03-1.03.06.22-1.43.1-2.74-.33-4.16Zm1.26-4c-.16,0-.34-.03-.45-.04h-.02c-.32,0-.3.62-1.11.91,0,0-.18,0-.29-.25-.1-.22-.04-.38-.04-.38.66-.95.79-1.25,1.31-1.25h.04c.55.01.7.2.86.68.1.28-.08.34-.3.34Zm-2.69-1.67c-.09.07-.17.16-.24.23-.77.8-1.17,1.98-.67,3.61-1.43-1.16-1.48-3.97,1.35-4.19.01,0,.02,0,.03,0-.01,0-.02.01-.03.02-.16.1-.3.21-.44.33Zm-1.68-.14c.03-.96.5-1.79,1.12-2.47l.58,1.32c-.73.25-1.38.59-1.7,1.16Zm-.3-1v-4.67l1.21,2.74c-.59.62-1,1.27-1.21,1.93Zm.84,5.47l.31.25s0,.07.01.1c.08.56.17,1.09.16,1.57-.01,1.62-.17,2.82-.98,4.43-.12.05-.23.1-.34.15v-2.46c.06-.88.26-3.33.84-4.04Zm9.17-5.44c-.4-1.31-1.55-2.54-3.39-3.61l-.31-.18c.02-.09.04-.19.06-.28.55-.46.6-.67.04-1.17l.92-2.19c.91.07,1.8.18,2.68.33v7.11Zm-6.43-5.24c-.55.5-.49.7.05,1.17.01.09.03.19.05.28l-.31.18c-.3.17-.58.35-.84.54l-2.02-4.11c.71-.11,1.43-.19,2.15-.24l.91,2.19Zm1.42,61.39c-18.18,0-32.97-14.79-32.97-32.97C3.09,20.19,14.38,6.89,29.35,3.78l.17.92h0C14.97,7.73,4.03,20.62,4.03,36.07c0,17.69,14.35,32.04,32.04,32.04s32.04-14.34,32.04-32.04S54.34,4.61,37.14,4.05c-.3-.24-.67-.38-1.08-.38s-.78.14-1.08.38c-1.36.04-2.71.17-4.02.39h0s-.63-.84-.63-.84c1.86-.33,3.78-.5,5.73-.5,18.18,0,32.97,14.79,32.97,32.97s-14.79,32.97-32.97,32.97Z"/><g class="cls-1"><path class="cls-2" d="m36.07,26.06c5.52,0,10.01,4.49,10.01,10.01s-4.49,10.01-10.01,10.01-10.01-4.49-10.01-10.01,4.49-10.01,10.01-10.01m0-.48c-5.79,0-10.49,4.7-10.49,10.49s4.7,10.49,10.49,10.49,10.49-4.7,10.49-10.49-4.7-10.49-10.49-10.49h0Z"/></g><circle class="cls-6" cx="36.07" cy="36.07" r="10.01"/><path class="cls-2" d="m38.94,32.18v9.16c.5.05.91.43,1,.91h.49v1.73h-8.71v-1.73h.49c.1-.49.5-.86,1-.91v-9.16c-.14.06-.3.11-.45.12-.05,0-.11.01-.16.01-.37,0-.74-.13-1.03-.38-.35-.29-.58-.72-.62-1.18-.04-.49.12-.98.43-1.35.23-.28.55-.49.9-.59v-1.01h7.6v1.01c.35.11.67.32.9.59.32.38.48.87.43,1.35-.04.46-.27.89-.62,1.18-.3.24-.66.38-1.03.38-.05,0-.11,0-.16-.01-.16-.02-.31-.06-.45-.12Z"/><path class="cls-4" d="m38.46,31.88v9.45h-.62v-9.67c.27.07.48.14.62.22Z"/><path class="cls-4" d="m37.37,31.57v9.77h-1.07v-9.87c.41.01.76.05,1.07.1Z"/><path class="cls-4" d="m38.29,30.28c-.07.13-.12.28-.14.43,0,.01,0,.02,0,.03,0,.04,0,.09,0,.13h-4.15s0-.09,0-.13c0-.01,0-.02,0-.03-.02-.15-.07-.3-.14-.43.61-.13,1.4-.2,2.23-.2s1.62.07,2.23.2Z"/><rect class="cls-4" x="32.74" y="28.27" width="6.66" height=".45"/><path class="cls-4" d="m39.45,42.26h-6.76c.08-.22.27-.39.51-.43.04-.01.09-.02.13-.02h5.47s.09,0,.13.02c.24.04.43.21.51.43Z"/><rect class="cls-4" x="32.18" y="42.73" width="7.78" height=".79"/><path class="cls-4" d="m40.73,30.71c-.03.34-.19.65-.45.86-.24.2-.55.29-.85.26-.28-.03-.54-.17-.71-.38-.16-.2-.23-.45-.2-.69,0-.01,0-.02,0-.03.03-.21.14-.4.31-.52.12-.08.25-.14.39-.14h.07s.05,0,.07,0c.16.02.31.11.39.24.07.11.11.24.08.37,0,.03-.01.05-.02.07-.02.05-.05.1-.1.14-.01.01-.03.02-.04.03-.05.03-.1.04-.16.04-.08,0-.15-.03-.21-.08-.05-.04-.08-.1-.1-.16,0-.03-.01-.05-.01-.08,0-.09.04-.18.11-.23-.13,0-.25.07-.33.19-.02.04-.04.08-.05.13-.03.1-.02.22.02.33.07.16.21.29.38.35.19.06.41.03.59-.07.19-.12.34-.32.38-.55.05-.25,0-.52-.15-.73-.16-.23-.42-.39-.71-.44-.01,0-.02,0-.04,0h0s-.05,0-.05,0c-.06,0-.12,0-.18,0h-6.22c-.06,0-.12,0-.18,0h-.05s-.02,0-.04.01c-.29.05-.55.21-.71.44-.15.21-.21.48-.15.73.05.23.19.43.38.55.18.11.39.14.59.07.18-.06.32-.18.38-.35.04-.11.05-.22.02-.33-.01-.04-.03-.09-.05-.13-.08-.12-.2-.19-.33-.19.06.06.11.14.11.23,0,.03,0,.05-.01.08-.02.06-.05.12-.1.16-.05.05-.13.08-.21.08-.06,0-.11-.01-.16-.04-.02-.01-.03-.02-.04-.03-.04-.03-.08-.08-.1-.14-.01-.02-.02-.05-.02-.07-.03-.12,0-.26.08-.37.09-.13.23-.22.39-.24.02,0,.05,0,.07,0h.07c.14,0,.27.06.39.14.16.12.27.31.31.52,0,.01,0,.02,0,.03.03.24-.04.49-.2.69-.17.21-.42.35-.71.38-.3.03-.61-.06-.85-.26-.25-.21-.42-.52-.45-.86-.03-.36.08-.73.32-1.01.25-.3.62-.49,1.02-.52h6.65c.4.03.77.22,1.02.52.24.28.36.65.32,1.01Z"/><path class="cls-4" d="m33.67,31.88v9.45s.62,0,.62,0v-9.67c-.27.07-.48.14-.62.22Z"/><path class="cls-4" d="m34.77,31.57v9.77s1.07,0,1.07,0v-9.87c-.41.01-.76.05-1.07.1Z"/><path class="cls-2" d="m264.22,68.64h-3.57v-.87l1.02-.38v-5.99l-1.02-.39v-.87h3.57v.87l-1.02.39v5.99l1.02.38v.87Z"/><path class="cls-2" d="m271.58,68.64h-1.52v-7.22h-2.44v-1.29h6.41v1.29h-2.44v7.22Z"/><path class="cls-2" d="m282.34,68.64l-.77-2.25h-3.2l-.76,2.25h-1.62l3.12-8.54h1.74l3.12,8.54h-1.62Zm-1.17-3.56l-.74-2.19c-.03-.1-.08-.25-.14-.45s-.12-.39-.18-.6-.1-.37-.14-.51c-.04.17-.09.35-.15.56s-.12.4-.17.58-.09.32-.12.4l-.75,2.19h2.39Z"/><path class="cls-2" d="m287.61,68.64v-8.5h1.52v7.22h3.55v1.29h-5.07Z"/><path class="cls-2" d="m299.75,68.64h-3.57v-.87l1.02-.38v-5.99l-1.02-.39v-.87h3.57v.87l-1.02.39v5.99l1.02.38v.87Z"/><path class="cls-2" d="m309.41,68.64l-.77-2.25h-3.2l-.76,2.25h-1.62l3.12-8.54h1.74l3.12,8.54h-1.62Zm-1.17-3.56l-.74-2.19c-.03-.1-.08-.25-.14-.45s-.12-.39-.18-.6-.1-.37-.14-.51c-.04.17-.09.35-.15.56s-.12.4-.17.58-.09.32-.12.4l-.75,2.19h2.39Z"/></svg>